HIERARCHY
ROOT Hips
{
	OFFSET 0.000000 0.000000 0.000000
	CHANNELS 6 Xposition Yposition Zposition Zrotation Yrotation Xrotation 
	JOINT LHipJoint
	{
		OFFSET 0.000000 0.000000 0.000000
		CHANNELS 3 Zrotation Yrotation Xrotation
		JOINT LeftUpLeg
		{
			OFFSET 1.363060 -1.794630 0.839290
			CHANNELS 3 Zrotation Yrotation Xrotation
			JOINT LeftLeg
			{
				OFFSET 2.448110 -6.726130 0.000000
				CHANNELS 3 Zrotation Yrotation Xrotation
				JOINT LeftFoot
				{
					OFFSET 2.562200 -7.039590 0.000000
					CHANNELS 3 Zrotation Yrotation Xrotation
					JOINT LeftToeBase
					{
						OFFSET 0.157640 -0.433110 2.322550
						CHANNELS 3 Zrotation Yrotation Xrotation
						End Site
						{
							OFFSET 0.000000 0.000000 0.000000
						}
					}
				}
			}
		}
	}
	JOINT RHipJoint
	{
		OFFSET 0.000000 0.000000 0.000000
		CHANNELS 3 Zrotation Yrotation Xrotation
		JOINT RightUpLeg
		{
			OFFSET -1.305520 -1.794630 0.839290
			CHANNELS 3 Zrotation Yrotation Xrotation
			JOINT RightLeg
			{
				OFFSET -2.542530 -6.985550 0.000000
				CHANNELS 3 Zrotation Yrotation Xrotation
				JOINT RightFoot
				{
					OFFSET -2.568260 -7.056230 0.000000
					CHANNELS 3 Zrotation Yrotation Xrotation
					JOINT RightToeBase
					{
						OFFSET -0.164730 -0.452590 2.363150
						CHANNELS 3 Zrotation Yrotation Xrotation
						End Site
						{
							OFFSET 0.000000 0.000000 0.000000
						}
					}
				}
			}
		}
	}
	JOINT LowerBack
	{
		OFFSET 0.000000 0.000000 0.000000
		CHANNELS 3 Zrotation Yrotation Xrotation
		JOINT Spine
		{
			OFFSET 0.028270 2.035590 -0.193380
			CHANNELS 3 Zrotation Yrotation Xrotation
			JOINT Spine1
			{
				OFFSET 0.056720 2.048850 -0.042750
				CHANNELS 3 Zrotation Yrotation Xrotation
				JOINT Neck
				{
					OFFSET 0.000000 0.000000 0.000000
					CHANNELS 3 Zrotation Yrotation Xrotation
					JOINT Neck1
					{
						OFFSET -0.054170 1.746240 0.172020
						CHANNELS 3 Zrotation Yrotation Xrotation
						JOINT Head
						{
							OFFSET 0.104070 1.761360 -0.123970
							CHANNELS 3 Zrotation Yrotation Xrotation
							End Site
							{
								OFFSET 0.000000 0.000000 0.000000
							}
						}
					}
				}
				JOINT LeftShoulder
				{
					OFFSET 0.000000 0.000000 0.000000
					CHANNELS 3 Zrotation Yrotation Xrotation
					JOINT LeftArm
					{
						OFFSET 3.362410 1.200890 -0.311210
						CHANNELS 3 Zrotation Yrotation Xrotation
						JOINT LeftForeArm
						{
							OFFSET 4.983000 -0.000000 -0.000000
							CHANNELS 3 Zrotation Yrotation Xrotation
							JOINT LeftHand
							{
								OFFSET 3.483560 -0.000000 -0.000000
								CHANNELS 3 Zrotation Yrotation Xrotation
								JOINT LeftFingerBase
								{
									OFFSET 0.000000 0.000000 0.000000
									CHANNELS 3 Zrotation Yrotation Xrotation
									JOINT LeftHandIndex1
									{
										OFFSET 0.715260 -0.000000 -0.000000
										CHANNELS 3 Zrotation Yrotation Xrotation
										End Site
										{
											OFFSET 0.000000 0.000000 0.000000
										}
									}
								}
								JOINT LThumb
								{
									OFFSET 0.000000 0.000000 0.000000
									CHANNELS 3 Zrotation Yrotation Xrotation
									End Site
									{
										OFFSET 0.000000 0.000000 0.000000
									}
								}
							}
						}
					}
				}
				JOINT RightShoulder
				{
					OFFSET 0.000000 0.000000 0.000000
					CHANNELS 3 Zrotation Yrotation Xrotation
					JOINT RightArm
					{
						OFFSET -3.136600 1.374050 -0.404650
						CHANNELS 3 Zrotation Yrotation Xrotation
						JOINT RightForeArm
						{
							OFFSET -5.241900 -0.000000 -0.000000
							CHANNELS 3 Zrotation Yrotation Xrotation
							JOINT RightHand
							{
								OFFSET -3.444170 -0.000000 -0.000000
								CHANNELS 3 Zrotation Yrotation Xrotation
								JOINT RightFingerBase
								{
									OFFSET 0.000000 0.000000 0.000000
									CHANNELS 3 Zrotation Yrotation Xrotation
									JOINT RightHandIndex1
									{
										OFFSET -0.622530 -0.000000 -0.000000
										CHANNELS 3 Zrotation Yrotation Xrotation
										End Site
										{
											OFFSET 0.000000 0.000000 0.000000
										}
									}
								}
								JOINT RThumb
								{
									OFFSET 0.000000 0.000000 0.000000
									CHANNELS 3 Zrotation Yrotation Xrotation
									End Site
									{
										OFFSET 0.000000 0.000000 0.000000
									}
								}
							}
						}
					}
				}
			}
		}
	}
}
MOTION
Frames: 11
Frame Time: 0.008333
-3.974259 21.326315 -6.359770 0.920441 40.210417 7.649297 -2.003299 -0.424620 0.480345 -16.679887 -7.642022 -10.104474 6.743906 15.366453 50.389653 1.963582 -11.588789 26.578154 2.593300 -10.005600 -28.994700 2.003995 1.518912 -0.546826 18.186636 -5.010335 -14.288784 -9.152467 -17.373968 56.487243 -0.617576 -6.982720 16.491745 -0.157600 -2.558300 7.051300 -1.293734 0.217578 14.965381 0.199618 0.368535 -0.047401 3.282894 0.090070 -8.418297 3.741284 6.649212 -14.560025 -5.728936 8.387684 6.559552 -2.522200 3.617800 5.834900 0.956612 3.796265 -1.353188 -76.124776 38.838945 23.153177 129.728275 -54.537252 -91.741111 -0.512882 1.895772 -21.357275 21.894974 -21.341718 -9.014200 -7.125000 0.000000 0.000000 -4.607700 4.992200 4.203100 -0.139396 -5.090967 -2.017851 74.373355 -22.640526 29.873544 -96.015881 63.857373 -59.786922 1.688559 -0.823721 -8.081547 -11.047188 -26.994799 5.558000 7.125000 0.000000 0.000000 18.383400 -55.347000 -4.787500 
-3.945760 21.465719 -5.921330 0.015775 42.347648 6.777224 -1.971009 -0.454578 0.477856 -16.417428 -6.007909 -11.435866 6.760723 15.386206 50.470596 1.922311 -12.102396 26.272922 2.482400 -9.805800 -28.350200 2.026172 1.478727 -0.536786 18.200481 -4.630738 -15.337400 -9.221707 -17.374554 56.627010 -0.408376 -8.948856 16.410078 -0.292400 -3.477300 9.610600 -1.174438 0.204461 15.235623 0.491650 0.391036 0.112619 3.522557 0.122109 -8.342870 5.545759 7.233488 -13.318961 -8.055797 8.959562 5.602162 -3.465300 3.834400 5.582600 0.911681 3.748412 -1.356752 -75.817355 38.719192 21.574533 127.065375 -55.614815 -89.627579 -0.588346 1.860785 -22.303643 23.519231 -20.853435 -9.591200 -7.125000 0.000000 0.000000 -3.516900 5.202100 3.189700 -0.116348 -5.184039 -1.987115 73.697597 -23.268165 27.787316 -88.671270 64.817624 -54.219119 1.513117 -0.850137 -9.498554 -11.801167 -27.508427 5.907500 7.125000 0.000000 0.000000 18.110600 -55.914100 -4.965600 
-3.898528 21.547827 -5.528428 0.488660 44.436086 7.258148 -1.986488 -0.487897 0.446658 -17.725064 -5.010066 -12.724541 6.653143 15.315373 50.056708 1.819753 -11.769083 25.109295 2.667600 -10.136400 -29.419700 2.067272 1.466491 -0.518319 16.612958 -4.506654 -16.746474 -9.111186 -17.251328 56.170747 -0.244626 -10.607022 16.507734 -0.621800 -5.046300 14.040800 -1.437552 0.177337 15.418354 0.402115 0.299902 0.081506 3.640318 0.099818 -8.468360 5.698859 7.234225 -13.440059 -8.420387 9.016528 5.993192 -3.582400 3.839800 5.740300 0.868595 3.787053 -1.355067 -75.140428 38.736269 20.887496 124.377444 -56.623838 -87.427198 -0.633201 1.823675 -23.642034 24.696535 -20.790904 -10.104100 -7.125000 0.000000 0.000000 -2.770400 5.055800 2.518500 -0.066553 -5.190793 -1.951120 72.941917 -23.986767 26.054721 -81.143874 65.150205 -48.810690 1.305994 -0.883211 -10.730011 -12.306361 -28.106017 6.157100 7.125000 0.000000 0.000000 18.187500 -56.529100 -5.261900 
-3.861161 21.581706 -5.123868 -0.473529 46.721780 6.376480 -1.967574 -0.510163 0.449442 -17.909985 -3.663133 -13.691150 6.410844 15.123067 49.140670 1.769901 -11.870128 24.481656 2.715700 -10.220000 -29.692200 2.082176 1.450642 -0.516321 16.310300 -4.397034 -17.387107 -8.798851 -17.015009 54.996724 -0.039915 -11.935588 16.070545 -0.659300 -5.193300 14.460600 -0.825487 0.036826 15.937005 0.660117 0.247458 0.215039 3.554797 0.065986 -8.658084 4.614610 6.975058 -13.545051 -7.313447 8.766832 5.861477 -3.113600 3.757500 5.591500 0.830733 3.844144 -1.354871 -74.282209 38.913030 20.743097 121.939601 -57.480536 -85.399837 -0.669742 1.784473 -24.793205 25.793414 -20.660460 -10.554400 -7.125000 0.000000 0.000000 -2.065100 4.994300 1.878700 -0.007041 -5.171326 -1.926164 72.212313 -24.561851 24.893774 -73.918533 64.789357 -43.700288 1.108505 -0.914864 -11.942245 -12.375559 -28.768251 6.222700 7.125000 0.000000 0.000000 18.763000 -57.132800 -5.713600 
-3.817417 21.559984 -4.722795 -1.048533 48.705149 5.953191 -1.965418 -0.540279 0.443306 -18.597690 -2.348021 -14.726403 6.128489 14.891467 48.052000 1.704670 -11.767871 23.602124 2.773200 -10.318500 -30.014300 2.100657 1.435214 -0.513856 15.515048 -3.979406 -17.965205 -8.391670 -16.700646 53.478831 0.201294 -13.158305 15.295986 -0.795900 -5.694600 15.900900 -0.448659 -0.012339 16.143581 0.762906 0.257761 0.336397 3.444156 0.067252 -8.665142 4.298278 6.846764 -13.461729 -7.133706 8.619393 5.619492 -3.033700 3.693000 5.472700 0.789161 3.862592 -1.348797 -73.301890 39.285955 20.970530 119.948557 -58.163935 -83.705747 -0.685173 1.745898 -25.264790 26.401425 -20.256581 -10.653600 -7.125000 0.000000 0.000000 -1.624900 5.334300 1.467400 0.038667 -5.168682 -1.915173 71.546699 -25.084780 24.294700 -67.531796 63.933341 -39.131209 0.944144 -0.944734 -13.582097 -12.327161 -28.835918 6.117900 7.125000 0.000000 0.000000 19.066100 -57.151700 -5.819400 
-3.775267 21.491228 -4.319530 -1.937475 50.712443 5.253519 -1.957604 -0.573251 0.443082 -19.138027 -0.896404 -15.733574 5.801597 14.604602 46.776416 1.654032 -11.972735 22.902484 2.836900 -10.426200 -30.368400 2.112606 1.425988 -0.518100 14.867754 -3.439590 -18.195803 -7.897073 -16.314057 51.632236 0.440546 -13.953139 14.141102 -0.915200 -6.095700 17.062300 0.062369 -0.073810 16.404576 0.948384 0.288090 0.443459 3.331341 0.076848 -8.721912 4.184193 6.759429 -13.591532 -7.091886 8.526499 5.671133 -3.009300 3.644500 5.492800 0.742149 3.872531 -1.338673 -72.219833 39.896982 21.649626 118.415299 -58.698978 -82.342589 -0.655962 1.721411 -25.128430 26.206681 -20.177073 -10.506600 -7.125000 0.000000 0.000000 -1.739700 5.502600 1.565600 0.076884 -5.152475 -1.916879 70.763689 -25.866229 24.204938 -62.595117 62.954018 -35.566434 0.822646 -0.964619 -15.021969 -12.274407 -28.435820 5.941700 7.125000 0.000000 0.000000 19.030500 -56.744600 -5.618500 
-3.739693 21.371953 -3.909987 -3.063014 52.722663 4.458662 -1.945920 -0.608537 0.438122 -19.632358 0.436449 -16.823262 5.456917 14.283261 45.415979 1.623837 -12.598782 22.546892 2.944900 -10.605300 -30.959900 2.120862 1.416129 -0.522166 14.355256 -2.712666 -18.350182 -7.373072 -15.869485 49.626570 0.629267 -14.352611 12.962779 -0.921900 -6.117400 17.125400 0.522309 -0.117362 16.604999 1.224934 0.345386 0.492714 3.316456 0.105116 -8.813773 3.665588 6.626812 -13.831732 -6.510006 8.416063 5.841193 -2.760900 3.606800 5.522500 0.694183 3.892300 -1.324681 -71.057381 40.695648 22.824898 117.281740 -59.108868 -81.280965 -0.599193 1.708586 -24.627145 25.682177 -20.469943 -10.363000 -7.125000 0.000000 0.000000 -2.116900 5.338700 1.912100 0.117970 -5.109623 -1.926684 69.898159 -26.962208 24.365277 -59.204951 62.132660 -33.128014 0.741686 -0.971747 -15.174252 -11.691016 -28.382214 5.620000 7.125000 0.000000 0.000000 19.691000 -56.583300 -5.746200 
-3.707707 21.198669 -3.498850 -4.174196 54.717298 3.751335 -1.936925 -0.644440 0.424675 -20.291217 1.481689 -17.884813 5.102345 13.933281 43.987334 1.617167 -13.287603 22.571013 2.964900 -10.638100 -31.068700 2.130452 1.406599 -0.525548 13.731259 -1.931277 -18.475713 -6.830394 -15.377013 47.495524 0.838353 -14.791650 11.603125 -0.806400 -5.731100 16.006100 0.883730 -0.150573 16.794835 1.481830 0.400048 0.462292 3.341428 0.137307 -8.967977 3.278808 6.642829 -14.080641 -6.041006 8.507255 6.158982 -2.540600 3.663600 5.619700 0.641449 3.903378 -1.305177 -69.883802 41.687493 24.319488 116.621726 -59.383752 -80.611532 -0.541928 1.699921 -24.079320 25.230588 -20.884941 -10.302800 -7.125000 0.000000 0.000000 -2.463400 5.023700 2.240300 0.160739 -5.055578 -1.943561 69.086029 -28.334392 24.655434 -57.127377 61.581684 -31.654179 0.687430 -0.969539 -14.176335 -10.924435 -28.496237 5.268400 7.125000 0.000000 0.000000 20.592700 -56.558100 -6.012200 
-3.663963 20.981542 -3.087016 -5.365567 56.581534 2.839423 -1.935261 -0.680367 0.419724 -21.058088 2.493123 -18.689444 4.747820 13.557718 42.507082 1.601462 -13.942023 22.523391 2.838000 -10.428100 -30.374500 2.133782 1.409095 -0.538789 12.953374 -1.140233 -18.185643 -6.261625 -14.844151 45.218724 1.016894 -15.090500 10.248121 -0.772500 -5.612200 15.663300 1.358261 -0.184775 17.067646 1.663555 0.473410 0.457373 3.227853 0.168736 -9.150212 2.869582 6.522843 -14.403714 -5.523784 8.408266 6.442037 -2.322700 3.629300 5.705200 0.589750 3.906489 -1.279699 -68.744196 42.800774 25.939665 116.456018 -59.525773 -80.371558 -0.503669 1.691668 -23.650939 25.075809 -21.166913 -10.330500 -7.125000 0.000000 0.000000 -2.601900 4.780300 2.378600 0.209370 -5.001553 -1.967804 68.333075 -29.842867 25.285956 -56.056244 61.309058 -30.916746 0.637337 -0.958469 -13.294183 -11.483384 -28.210218 5.471700 7.125000 0.000000 0.000000 19.894700 -56.425300 -5.731900 
-3.612346 20.724656 -2.674284 -6.753413 58.421170 2.112779 -1.941946 -0.724954 0.395856 -21.860652 3.110553 -19.721339 4.400093 13.174674 41.015249 1.548233 -14.653736 22.012469 2.702700 -10.197500 -29.618700 2.138877 1.400592 -0.542920 12.109162 -0.082087 -18.110908 -5.709744 -14.256009 42.891627 1.120133 -15.116241 9.181987 -0.887900 -6.006500 16.803400 1.910350 -0.205600 16.906999 1.849703 0.559129 0.369890 3.065681 0.203455 -9.163987 2.245176 6.327768 -14.484217 -4.857109 8.192717 6.233947 -2.056400 3.550200 5.591000 0.547823 3.899589 -1.253797 -67.831226 43.868346 27.512010 116.626609 -59.565384 -80.419167 -0.482157 1.685249 -23.196293 25.059983 -21.158827 -10.312500 -7.125000 0.000000 0.000000 -2.611300 4.807200 2.385800 0.262182 -4.950155 -1.998303 67.615173 -31.358833 26.115636 -55.903160 61.315302 -30.848118 0.605100 -0.939190 -13.086331 -12.509065 -27.880189 5.883300 7.125000 0.000000 0.000000 18.691600 -56.339800 -5.328200 
-3.564616 20.421335 -2.256969 -8.443077 60.299925 1.033492 -1.955509 -0.770393 0.376314 -22.563975 3.682887 -20.640269 4.076538 12.797025 39.568980 1.457340 -15.402698 20.889444 2.683400 -10.164000 -29.509400 2.137893 1.392090 -0.554614 11.332109 1.161072 -17.811006 -5.174588 -13.642283 40.532238 1.218560 -15.256763 8.263311 -0.995100 -6.348600 17.799200 2.467499 -0.244893 16.903175 2.073668 0.634598 0.301046 2.952256 0.235839 -9.237437 2.093484 6.202033 -14.704597 -4.963694 8.060177 6.155197 -2.073600 3.469900 5.596900 0.506863 3.872337 -1.232431 -67.220934 44.961559 28.865431 117.103024 -59.520233 -80.719351 -0.470495 1.679453 -22.801892 24.872576 -20.886075 -10.110000 -7.125000 0.000000 0.000000 -2.692300 5.146400 2.442700 0.307711 -4.907393 -2.031676 66.893437 -32.846775 27.132715 -56.662511 61.599486 -31.435701 0.608494 -0.915285 -13.518369 -12.756410 -27.644576 5.954900 7.125000 0.000000 0.000000 18.309200 -56.184000 -5.144000 
